<svg width="453" height="130" viewBox="0 0 453 130" fill="none" xmlns="http://www.w3.org/2000/svg">
<path d="M102.085 99.7656C102.085 103.352 101.698 106.094 100.925 107.992C100.222 109.82 99.2374 110.734 97.9717 110.734H85.8428V135.414C85.8428 136.117 85.6319 136.75 85.21 137.312C84.7881 137.805 84.0499 138.227 82.9952 138.578C81.9405 138.93 80.5694 139.176 78.8819 139.316C77.1944 139.527 75.0147 139.633 72.3428 139.633C69.8116 139.633 67.667 139.527 65.9092 139.316C64.2217 139.176 62.8506 138.93 61.7959 138.578C60.8116 138.227 60.1084 137.805 59.6866 137.312C59.335 136.75 59.1592 136.117 59.1592 135.414V110.734H6.95219C5.96782 110.734 5.08891 110.629 4.31548 110.418C3.54204 110.137 2.87407 109.574 2.31157 108.73C1.81938 107.816 1.43266 106.551 1.15141 104.934C0.940475 103.246 0.835007 101.031 0.835007 98.2891C0.835007 96.0391 0.870163 94.1055 0.940475 92.4883C1.0811 90.8008 1.25688 89.2891 1.46782 87.9531C1.74907 86.6172 2.10063 85.3516 2.52251 84.1562C3.01469 82.9609 3.61235 81.6953 4.31548 80.3594L46.7139 5.58203C47.0655 4.94922 47.6631 4.42188 48.5069 4C49.3506 3.50781 50.5108 3.12109 51.9874 2.83984C53.5342 2.48828 55.4678 2.24219 57.7881 2.10156C60.1084 1.96094 62.9209 1.89062 66.2256 1.89062C69.8116 1.89062 72.8702 1.99609 75.4014 2.20703C77.9327 2.34766 79.9366 2.62891 81.4131 3.05078C82.96 3.40234 84.085 3.85938 84.7881 4.42188C85.4913 4.98437 85.8428 5.65234 85.8428 6.42578V88.5859H97.9717C99.0967 88.5859 100.046 89.4648 100.819 91.2227C101.663 92.9102 102.085 95.7578 102.085 99.7656ZM59.1592 25.832H58.9483L22.9834 88.5859H59.1592V25.832ZM243.637 64.5391C243.637 70.0938 243.355 75.8594 242.793 81.8359C242.23 87.7422 241.141 93.543 239.523 99.2383C237.977 104.934 235.797 110.348 232.984 115.48C230.242 120.613 226.656 125.113 222.227 128.98C217.867 132.777 212.523 135.801 206.195 138.051C199.938 140.301 192.52 141.426 183.941 141.426C180.918 141.426 177.895 141.215 174.871 140.793C171.918 140.371 169.211 139.844 166.75 139.211C164.289 138.578 162.18 137.91 160.422 137.207C158.734 136.504 157.504 135.801 156.73 135.098C155.957 134.324 155.395 133.234 155.043 131.828C154.691 130.422 154.516 128.453 154.516 125.922C154.516 123.602 154.551 121.738 154.621 120.332C154.762 118.926 154.973 117.836 155.254 117.062C155.605 116.289 155.992 115.797 156.414 115.586C156.906 115.305 157.469 115.164 158.102 115.164C158.945 115.164 160.141 115.41 161.688 115.902C163.234 116.395 165.098 116.957 167.277 117.59C169.527 118.223 172.059 118.785 174.871 119.277C177.684 119.77 180.812 120.016 184.258 120.016C190.164 120.016 195.156 118.961 199.234 116.852C203.312 114.742 206.617 111.895 209.148 108.309C211.68 104.723 213.543 100.574 214.738 95.8633C215.934 91.1523 216.602 86.1953 216.742 80.9922C213.508 83.0312 209.605 84.8242 205.035 86.3711C200.465 87.8477 195.227 88.5859 189.32 88.5859C182.078 88.5859 175.926 87.6367 170.863 85.7383C165.801 83.8398 161.688 81.0977 158.523 77.5117C155.359 73.9258 153.039 69.5664 151.562 64.4336C150.156 59.3008 149.453 53.5 149.453 47.0312C149.453 40.2109 150.473 33.9531 152.512 28.2578C154.551 22.4922 157.574 17.5352 161.582 13.3867C165.59 9.16797 170.582 5.89844 176.559 3.57812C182.535 1.25781 189.461 0.0976562 197.336 0.0976562C203.664 0.0976562 209.184 0.835938 213.895 2.3125C218.676 3.78906 222.754 5.89844 226.129 8.64062C229.574 11.3828 232.422 14.7227 234.672 18.6602C236.992 22.5273 238.785 26.8516 240.051 31.6328C241.387 36.4141 242.301 41.582 242.793 47.1367C243.355 52.6914 243.637 58.4922 243.637 64.5391ZM216.109 60.7422C216.109 53.2188 215.688 46.9258 214.844 41.8633C214 36.8008 212.734 32.7578 211.047 29.7344C209.359 26.7109 207.25 24.5664 204.719 23.3008C202.188 22.0352 199.234 21.4023 195.859 21.4023C192.555 21.4023 189.707 22 187.316 23.1953C184.926 24.3203 182.922 25.9375 181.305 28.0469C179.758 30.1562 178.598 32.6523 177.824 35.5352C177.051 38.418 176.664 41.582 176.664 45.0273C176.664 48.7539 176.98 52.0586 177.613 54.9414C178.316 57.7539 179.371 60.1094 180.777 62.0078C182.254 63.8359 184.152 65.207 186.473 66.1211C188.793 67.0352 191.605 67.4922 194.91 67.4922C198.988 67.4922 202.82 66.8945 206.406 65.6992C210.062 64.4336 213.297 62.7813 216.109 60.7422ZM349.059 70.2344C349.059 81.1328 348.18 90.9766 346.422 99.7656C344.665 108.555 341.782 116.043 337.774 122.23C333.836 128.418 328.668 133.164 322.27 136.469C315.942 139.773 308.172 141.426 298.961 141.426C289.61 141.426 281.875 139.844 275.758 136.68C269.641 133.445 264.79 128.84 261.204 122.863C257.618 116.816 255.086 109.469 253.61 100.82C252.204 92.1016 251.5 82.2578 251.5 71.2891C251.5 60.4609 252.379 50.6523 254.137 41.8633C255.965 33.0039 258.848 25.4805 262.786 19.293C266.793 13.1055 271.961 8.35937 278.29 5.05469C284.688 1.75 292.458 0.0976562 301.598 0.0976562C310.95 0.0976562 318.684 1.71484 324.801 4.94922C330.989 8.11328 335.875 12.7188 339.461 18.7656C343.047 24.7422 345.543 32.0898 346.95 40.8086C348.356 49.457 349.059 59.2656 349.059 70.2344ZM321.11 71.6055C321.11 65.1367 320.934 59.4414 320.583 54.5195C320.231 49.5273 319.668 45.2031 318.895 41.5469C318.192 37.8906 317.278 34.7969 316.153 32.2656C315.098 29.7344 313.797 27.7305 312.25 26.2539C310.704 24.707 308.946 23.6172 306.977 22.9844C305.008 22.3516 302.829 22.0352 300.438 22.0352C296.29 22.0352 292.844 23.0547 290.102 25.0938C287.43 27.0625 285.286 30.0508 283.668 34.0586C282.122 38.0664 281.032 43.0586 280.399 49.0352C279.766 55.0117 279.45 61.9727 279.45 69.918C279.45 79.6211 279.836 87.6719 280.61 94.0703C281.383 100.398 282.579 105.461 284.196 109.258C285.883 112.984 288.028 115.621 290.629 117.168C293.231 118.645 296.36 119.383 300.016 119.383C302.758 119.383 305.184 118.961 307.293 118.117C309.403 117.203 311.231 115.867 312.778 114.109C314.395 112.352 315.731 110.137 316.786 107.465C317.84 104.793 318.684 101.699 319.317 98.1836C320.02 94.668 320.477 90.6953 320.688 86.2656C320.969 81.8359 321.11 76.9492 321.11 71.6055ZM452.056 70.2344C452.056 81.1328 451.177 90.9766 449.419 99.7656C447.661 108.555 444.778 116.043 440.77 122.23C436.833 128.418 431.665 133.164 425.267 136.469C418.938 139.773 411.169 141.426 401.958 141.426C392.606 141.426 384.872 139.844 378.755 136.68C372.638 133.445 367.786 128.84 364.2 122.863C360.614 116.816 358.083 109.469 356.606 100.82C355.2 92.1016 354.497 82.2578 354.497 71.2891C354.497 60.4609 355.376 50.6523 357.134 41.8633C358.962 33.0039 361.845 25.4805 365.782 19.293C369.79 13.1055 374.958 8.35937 381.286 5.05469C387.685 1.75 395.454 0.0976562 404.595 0.0976562C413.946 0.0976562 421.681 1.71484 427.798 4.94922C433.985 8.11328 438.872 12.7188 442.458 18.7656C446.044 24.7422 448.54 32.0898 449.946 40.8086C451.352 49.457 452.056 59.2656 452.056 70.2344ZM424.106 71.6055C424.106 65.1367 423.931 59.4414 423.579 54.5195C423.227 49.5273 422.665 45.2031 421.892 41.5469C421.188 37.8906 420.274 34.7969 419.149 32.2656C418.095 29.7344 416.794 27.7305 415.247 26.2539C413.7 24.707 411.942 23.6172 409.974 22.9844C408.005 22.3516 405.825 22.0352 403.435 22.0352C399.286 22.0352 395.841 23.0547 393.099 25.0938C390.427 27.0625 388.282 30.0508 386.665 34.0586C385.118 38.0664 384.028 43.0586 383.395 49.0352C382.763 55.0117 382.446 61.9727 382.446 69.918C382.446 79.6211 382.833 87.6719 383.606 94.0703C384.38 100.398 385.575 105.461 387.192 109.258C388.88 112.984 391.024 115.621 393.626 117.168C396.227 118.645 399.356 119.383 403.013 119.383C405.755 119.383 408.181 118.961 410.29 118.117C412.399 117.203 414.227 115.867 415.774 114.109C417.392 112.352 418.727 110.137 419.782 107.465C420.837 104.793 421.681 101.699 422.313 98.1836C423.017 94.668 423.474 90.6953 423.685 86.2656C423.966 81.8359 424.106 76.9492 424.106 71.6055Z" fill="#F2F2F2"/>
</svg>
